# xmcd
#
# Track frame offsets:
#	150
#	29779
#	45112
#	58781
#	76348
#	94125
#	106115
#	134369
#	147573
#	168452
#	184959
#
# Disc length: 2995 seconds
#
# Revision: 0
# Processed by: cddbd v1.5.2PL0 Copyright (c) Steve Scherf et al.
# Submitted via: audiograbber 1.83.01
#
DISCID=970bb10b
DTITLE=Virgil and The Accelerators - The Radium
DYEAR=2011
DGENRE=Blues
TTITLE0=Working Man
TTITLE1=Refuse To Believe
TTITLE2=Backstabber
TTITLE3=88
TTITLE4=Racing With Life
TTITLE5=The Storm
TTITLE6=Low Down And Dirty
TTITLE7=Bad Girl
TTITLE8=Fell To The Moon
TTITLE9=Cold Hearted Woman
TTITLE10=Silver Given	
EXTD=
EXTT0=
EXTT1=
EXTT2=
EXTT3=
EXTT4=
EXTT5=
EXTT6=
EXTT7=
EXTT8=
EXTT9=
EXTT10=
PLAYORDER=
